<?xml version="1.0" encoding="utf-8"?>
<!-- Generator: Adobe Illustrator 24.1.1, SVG Export Plug-In . SVG Version: 6.00 Build 0)  -->
<svg version="1.1" id="Layer_1" xmlns="http://www.w3.org/2000/svg" xmlns:xlink="http://www.w3.org/1999/xlink" x="0px" y="0px"
	 viewBox="0 0 512 512" style="enable-background:new 0 0 512 512;" xml:space="preserve">
<g>
	<path d="M256,320c-35.3,0-64-28.7-64-64s28.7-64,64-64s64,28.7,64,64S291.3,320,256,320z M256,128c-35.3,0-64-28.7-64-64
		s28.7-64,64-64s64,28.7,64,64S291.3,128,256,128z M256,512c-35.3,0-64-28.7-64-64s28.7-64,64-64s64,28.7,64,64S291.3,512,256,512z"
		/>
</g>
</svg>
