<svg width="512" height="512" xmlns="http://www.w3.org/2000/svg"><path fill="none" d="M-1-1h582v402H-1z"/><g><path fill="#fff" d="M404.9 277.4v-42.8c0-5.6-1.9-11.2-6.5-14.9s-9.3-6.5-14.9-6.5h-85.6v-85.6c0-5.6-1.9-11.2-6.5-14.9-4.7-4.7-9.3-6.5-14.9-6.5h-42.8c-5.6 0-11.2 1.9-14.9 6.5-3.7 4.7-6.5 9.3-6.5 14.9v85.6h-85.6c-5.6 0-11.2 1.9-14.9 6.5-3.7 4.7-6.5 9.3-6.5 14.9v42.8c0 5.6 1.9 11.2 6.5 14.9 4.7 4.7 9.3 6.5 14.9 6.5h85.6v85.6c0 5.6 1.9 11.2 6.5 14.9 4.7 3.7 9.3 6.5 14.9 6.5h42.8c5.6 0 11.2-1.9 14.9-6.5 4.7-4.7 6.5-9.3 6.5-14.9v-85.6h85.6c5.6 0 11.2-1.9 14.9-6.5 4.7-4.6 6.5-9.3 6.5-14.9zM512 256c0 46.5-11.2 89.4-34.4 128.5s-54 69.8-93.1 93.1c-39.1 23.2-82 34.4-128.5 34.4s-89.4-11.2-128.5-34.4c-39.1-23.3-69.8-54-93.1-93.1S0 302.5 0 256s11.2-89.4 34.4-128.5 54-69.8 93.1-93.1S209.5 0 256 0s89.4 11.2 128.5 34.4 69.8 54 93.1 93.1S512 209.5 512 256z"/></g></svg>