<svg width="1000" height="1000" xmlns="http://www.w3.org/2000/svg" xml:space="preserve"><path d="M861.2 831.1C941.2 743.9 990 627.6 990 500c0-270.6-219.4-490-490-490S10 229.4 10 500c0 132 52.2 251.8 137.1 339.9 33.5-94.6 103.6-173.4 196.5-217.3l75.1-35.5-59.5-58c-38.8-37.8-61-89.3-61-144.5 0-111.4 90.3-201.8 201.8-201.8 111.4 0 201.8 90.3 201.8 201.8 0 53.8-21.1 104.2-58.1 141.7l-58.4 59.1 75.8 34c93.3 41.9 164.6 118.7 200.1 211.7z"/><path d="M500 932.4c238.8 0 432.4-193.6 432.4-432.4 0-238.8-193.6-432.4-432.4-432.4C261.2 67.6 67.6 261.2 67.6 500c0 238.8 193.6 432.4 432.4 432.4zm0 57.6C229.4 990 10 770.6 10 500S229.4 10 500 10s490 219.4 490 490-219.4 490-490 490z"/><g fill="#fff"><path d="M861.2 831.1C941.2 743.9 990 627.6 990 500c0-270.6-219.4-490-490-490S10 229.4 10 500c0 132 52.2 251.8 137.1 339.9 33.5-94.6 103.6-173.4 196.5-217.3l75.1-35.5-59.5-58c-38.8-37.8-61-89.3-61-144.5 0-111.4 90.3-201.8 201.8-201.8 111.4 0 201.8 90.3 201.8 201.8 0 53.8-21.1 104.2-58.1 141.7l-58.4 59.1 75.8 34c93.3 41.9 164.6 118.7 200.1 211.7z"/><path d="M500 932.4c238.8 0 432.4-193.6 432.4-432.4 0-238.8-193.6-432.4-432.4-432.4C261.2 67.6 67.6 261.2 67.6 500c0 238.8 193.6 432.4 432.4 432.4zm0 57.6C229.4 990 10 770.6 10 500S229.4 10 500 10s490 219.4 490 490-219.4 490-490 490z"/></g></svg>