<svg width="24" height="24" xmlns="http://www.w3.org/2000/svg">

 <g>
  <title>Layer 1</title>
  <path fill="#ffffff" id="svg_1" d="m3,6l0,18l18,0l0,-18l-18,0zm5,14c0,0.552 -0.448,1 -1,1s-1,-0.448 -1,-1l0,-10c0,-0.552 0.448,-1 1,-1s1,0.448 1,1l0,10zm5,0c0,0.552 -0.448,1 -1,1s-1,-0.448 -1,-1l0,-10c0,-0.552 0.448,-1 1,-1s1,0.448 1,1l0,10zm5,0c0,0.552 -0.448,1 -1,1s-1,-0.448 -1,-1l0,-10c0,-0.552 0.448,-1 1,-1s1,0.448 1,1l0,10zm4,-18l0,2l-20,0l0,-2l5.711,0c0.9,0 1.631,-1.099 1.631,-2l5.315,0c0,0.901 0.73,2 1.631,2l5.712,0z"/>
 </g>
</svg>